<!-- Canvas Crafters App Icon SVG -->
<svg width="512" height="512" viewBox="0 0 512 512" fill="none" xmlns="http://www.w3.org/2000/svg">
  <!-- Background -->
  <rect width="512" height="512" rx="64" fill="#2563eb"/>
  
  <!-- Main Canvas -->
  <rect x="96" y="96" width="320" height="240" rx="16" fill="white"/>
  
  <!-- Paint Brush -->
  <rect x="344" y="280" width="8" height="80" rx="4" fill="#fbbf24" transform="rotate(45 348 320)"/>
  <circle cx="348" cy="284" r="12" fill="#f59e0b"/>
  
  <!-- Paint Stroke -->
  <path d="M120 140 Q180 120 240 140 Q300 160 360 140" stroke="#2563eb" stroke-width="8" stroke-linecap="round" fill="none"/>
  <path d="M140 180 Q200 160 260 180 Q320 200 380 180" stroke="#10b981" stroke-width="6" stroke-linecap="round" fill="none"/>
  <path d="M160 220 Q220 200 280 220 Q340 240 400 220" stroke="#f59e0b" stroke-width="6" stroke-linecap="round" fill="none"/>
  
  <!-- Collaboration Dots -->
  <circle cx="380" cy="120" r="8" fill="#10b981"/>
  <circle cx="400" cy="130" r="6" fill="#ef4444"/>
  <circle cx="390" cy="145" r="6" fill="#8b5cf6"/>
</svg>
